<svg xmlns="http://www.w3.org/2000/svg" width="1200" height="760" viewBox="0 0 1200 760" font-family="'Noto Sans SC','Microsoft YaHei',sans-serif">
  <defs>
    <linearGradient id="hdr" x1="0" y1="0" x2="1" y2="0">
      <stop offset="0" stop-color="#1E3A5F"/>
      <stop offset="1" stop-color="#2E6DB4"/>
    </linearGradient>
  </defs>

  <!-- 标题栏 -->
  <rect x="0" y="0" width="1200" height="56" fill="url(#hdr)"/>
  <circle cx="30" cy="28" r="6" fill="#5BC0BE"/>
  <text x="50" y="36" fill="#FFFFFF" font-size="19" font-weight="600">工业视觉分拣系统</text>
  <text x="1120" y="35" fill="#CFE0F2" font-size="15" text-anchor="end">数据日志页</text>

  <!-- 导航栏 -->
  <rect x="0" y="56" width="1200" height="44" fill="#FFFFFF"/>
  <rect x="20" y="62" width="118" height="32" rx="6" fill="#EDF1F5"/>
  <text x="79" y="83" fill="#5A6B7C" font-size="14" text-anchor="middle">主运行页</text>
  <rect x="148" y="62" width="118" height="32" rx="6" fill="#EDF1F5"/>
  <text x="207" y="83" fill="#5A6B7C" font-size="14" text-anchor="middle">设备调试</text>
  <rect x="276" y="62" width="118" height="32" rx="6" fill="#EDF1F5"/>
  <text x="335" y="83" fill="#5A6B7C" font-size="14" text-anchor="middle">视觉配置</text>
  <rect x="404" y="62" width="118" height="32" rx="6" fill="#2E6DB4"/>
  <text x="463" y="83" fill="#FFFFFF" font-size="14" text-anchor="middle">数据日志</text>
  <rect x="532" y="62" width="118" height="32" rx="6" fill="#EDF1F5"/>
  <text x="591" y="83" fill="#5A6B7C" font-size="14" text-anchor="middle">系统设置</text>
  <line x1="0" y1="99" x2="1200" y2="99" stroke="#D8DEE4" stroke-width="1"/>

  <!-- 查询条件行 -->
  <rect x="20" y="112" width="1160" height="64" rx="10" fill="#FFFFFF" stroke="#D8DEE4"/>
  <rect x="40" y="130" width="52" height="28" rx="5" fill="#EDF1F5"/>
  <text x="66" y="149" fill="#5A6B7C" font-size="12" text-anchor="middle">开始时间</text>
  <rect x="96" y="130" width="150" height="28" rx="5" fill="#FFFFFF" stroke="#C4CFDA"/>
  <text x="171" y="149" fill="#1A2B3C" font-size="12" text-anchor="middle">2026-09-15 08:00</text>
  <rect x="260" y="130" width="52" height="28" rx="5" fill="#EDF1F5"/>
  <text x="286" y="149" fill="#5A6B7C" font-size="12" text-anchor="middle">结束时间</text>
  <rect x="316" y="130" width="150" height="28" rx="5" fill="#FFFFFF" stroke="#C4CFDA"/>
  <text x="391" y="149" fill="#1A2B3C" font-size="12" text-anchor="middle">2026-09-15 15:00</text>
  <rect x="480" y="130" width="52" height="28" rx="5" fill="#EDF1F5"/>
  <text x="506" y="149" fill="#5A6B7C" font-size="12" text-anchor="middle">检测结果</text>
  <rect x="536" y="130" width="110" height="28" rx="5" fill="#FFFFFF" stroke="#C4CFDA"/>
  <text x="591" y="149" fill="#1A2B3C" font-size="12" text-anchor="middle">全部 ▾</text>
  <rect x="700" y="126" width="130" height="36" rx="6" fill="#2E6DB4"/>
  <text x="765" y="149" fill="#FFFFFF" font-size="13" text-anchor="middle">查询日志</text>
  <rect x="840" y="126" width="110" height="36" rx="6" fill="#FFFFFF" stroke="#C4CFDA"/>
  <text x="895" y="149" fill="#1A2B3C" font-size="13" text-anchor="middle">清空查询</text>

  <!-- 日志表格 -->
  <rect x="20" y="184" width="1160" height="430" rx="10" fill="#FFFFFF" stroke="#D8DEE4"/>
  <rect x="20" y="184" width="1160" height="40" rx="10" fill="#EDF1F5"/>
  <rect x="20" y="214" width="1160" height="10" fill="#EDF1F5"/>
  <text x="50" y="209" fill="#1A2B3C" font-size="13" font-weight="600">时间</text>
  <line x1="260" y1="184" x2="260" y2="614" stroke="#D8DEE4" stroke-width="1"/>
  <text x="290" y="209" fill="#1A2B3C" font-size="13" font-weight="600">工件编号</text>
  <line x1="440" y1="184" x2="440" y2="614" stroke="#D8DEE4" stroke-width="1"/>
  <text x="470" y="209" fill="#1A2B3C" font-size="13" font-weight="600">检测结果</text>
  <line x1="590" y1="184" x2="590" y2="614" stroke="#D8DEE4" stroke-width="1"/>
  <text x="620" y="209" fill="#1A2B3C" font-size="13" font-weight="600">匹配分数</text>
  <line x1="760" y1="184" x2="760" y2="614" stroke="#D8DEE4" stroke-width="1"/>
  <text x="790" y="209" fill="#1A2B3C" font-size="13" font-weight="600">备注</text>

  <!-- 数据行 1 -->
  <rect x="20" y="224" width="1160" height="36" fill="#FFFFFF"/>
  <text x="50" y="247" fill="#1A2B3C" font-size="12.5">2026-09-15 14:32:15</text>
  <text x="290" y="247" fill="#1A2B3C" font-size="12.5">WK-0128</text>
  <rect x="470" y="234" width="62" height="20" rx="10" fill="#E6F7EE"/>
  <text x="501" y="248" fill="#2E9E5B" font-size="12" text-anchor="middle">OK</text>
  <text x="620" y="247" fill="#1A2B3C" font-size="12.5">98.5</text>
  <text x="790" y="247" fill="#5A6B7C" font-size="12">传送带速度 40</text>
  <line x1="20" y1="260" x2="1180" y2="260" stroke="#EDF1F5" stroke-width="1"/>
  <!-- 数据行 2 -->
  <rect x="20" y="260" width="1160" height="36" fill="#FAFBFD"/>
  <text x="50" y="283" fill="#1A2B3C" font-size="12.5">2026-09-15 14:32:08</text>
  <text x="290" y="283" fill="#1A2B3C" font-size="12.5">WK-0127</text>
  <rect x="470" y="270" width="62" height="20" rx="10" fill="#E6F7EE"/>
  <text x="501" y="284" fill="#2E9E5B" font-size="12" text-anchor="middle">OK</text>
  <text x="620" y="283" fill="#1A2B3C" font-size="12.5">96.2</text>
  <text x="790" y="283" fill="#5A6B7C" font-size="12">—</text>
  <line x1="20" y1="296" x2="1180" y2="296" stroke="#EDF1F5" stroke-width="1"/>
  <!-- 数据行 3 -->
  <rect x="20" y="296" width="1160" height="36" fill="#FFFFFF"/>
  <text x="50" y="319" fill="#1A2B3C" font-size="12.5">2026-09-15 14:32:01</text>
  <text x="290" y="319" fill="#1A2B3C" font-size="12.5">WK-0126</text>
  <rect x="470" y="306" width="62" height="20" rx="10" fill="#FDECEC"/>
  <text x="501" y="320" fill="#D64545" font-size="12" text-anchor="middle">NG</text>
  <text x="620" y="319" fill="#1A2B3C" font-size="12.5">61.0</text>
  <text x="790" y="319" fill="#5A6B7C" font-size="12">工件倾斜</text>
  <line x1="20" y1="332" x2="1180" y2="332" stroke="#EDF1F5" stroke-width="1"/>
  <!-- 数据行 4 -->
  <rect x="20" y="332" width="1160" height="36" fill="#FAFBFD"/>
  <text x="50" y="355" fill="#1A2B3C" font-size="12.5">2026-09-15 14:31:55</text>
  <text x="290" y="355" fill="#1A2B3C" font-size="12.5">WK-0125</text>
  <rect x="470" y="342" width="62" height="20" rx="10" fill="#E6F7EE"/>
  <text x="501" y="356" fill="#2E9E5B" font-size="12" text-anchor="middle">OK</text>
  <text x="620" y="355" fill="#1A2B3C" font-size="12.5">99.1</text>
  <text x="790" y="355" fill="#5A6B7C" font-size="12">—</text>
  <line x1="20" y1="368" x2="1180" y2="368" stroke="#EDF1F5" stroke-width="1"/>
  <!-- 数据行 5 -->
  <rect x="20" y="368" width="1160" height="36" fill="#FFFFFF"/>
  <text x="50" y="391" fill="#1A2B3C" font-size="12.5">2026-09-15 14:31:49</text>
  <text x="290" y="391" fill="#1A2B3C" font-size="12.5">WK-0124</text>
  <rect x="470" y="378" width="62" height="20" rx="10" fill="#FDECEC"/>
  <text x="501" y="392" fill="#D64545" font-size="12" text-anchor="middle">NG</text>
  <text x="620" y="391" fill="#1A2B3C" font-size="12.5">55.4</text>
  <text x="790" y="391" fill="#5A6B7C" font-size="12">表面划痕</text>
  <line x1="20" y1="404" x2="1180" y2="404" stroke="#EDF1F5" stroke-width="1"/>

  <!-- 底部：统计 + 导出 + 分页 -->
  <rect x="20" y="622" width="1160" height="78" rx="10" fill="#FFFFFF" stroke="#D8DEE4"/>
  <text x="40" y="650" fill="#1A2B3C" font-size="13" font-weight="600">统计汇总</text>
  <text x="120" y="674" fill="#1A2B3C" font-size="15" font-weight="600">1280</text>
  <text x="120" y="692" fill="#5A6B7C" font-size="10.5">总检测</text>
  <text x="240" y="674" fill="#2E9E5B" font-size="15" font-weight="600">1246</text>
  <text x="240" y="692" fill="#5A6B7C" font-size="10.5">OK</text>
  <text x="360" y="674" fill="#D64545" font-size="15" font-weight="600">34</text>
  <text x="360" y="692" fill="#5A6B7C" font-size="10.5">NG</text>
  <text x="480" y="674" fill="#1A2B3C" font-size="15" font-weight="600">97.3%</text>
  <text x="480" y="692" fill="#5A6B7C" font-size="10.5">合格率</text>
  <line x1="580" y1="630" x2="580" y2="692" stroke="#EDF1F5" stroke-width="1"/>
  <rect x="620" y="636" width="140" height="36" rx="6" fill="#2E9E5B"/>
  <text x="690" y="659" fill="#FFFFFF" font-size="13" text-anchor="middle">导出 Excel</text>
  <text x="840" y="658" fill="#5A6B7C" font-size="12">上一页</text>
  <text x="930" y="658" fill="#1A2B3C" font-size="12.5">第 1 / 3 页</text>
  <text x="1030" y="658" fill="#5A6B7C" font-size="12">下一页</text>

  <!-- 底部状态栏 -->
  <rect x="0" y="720" width="1200" height="40" fill="#1E3A5F"/>
  <circle cx="28" cy="740" r="4" fill="#52E0A0"/>
  <text x="42" y="745" fill="#AFC6DD" font-size="12">系统运行中</text>
  <text x="196" y="745" fill="#AFC6DD" font-size="12">相机在线</text>
  <text x="330" y="745" fill="#AFC6DD" font-size="12">机械臂空闲</text>
  <text x="464" y="745" fill="#AFC6DD" font-size="12">传送带运行</text>
  <text x="608" y="745" fill="#AFC6DD" font-size="12">IO 正常</text>
  <text x="1120" y="745" fill="#AFC6DD" font-size="12" text-anchor="end">2026-09-15 15:00:00</text>
</svg>
